<svg xmlns:dc="http://purl.org/dc/elements/1.1/" xmlns:cc="http://creativecommons.org/ns#" xmlns:rdf="http://www.w3.org/1999/02/22-rdf-syntax-ns#" xmlns:svg="http://www.w3.org/2000/svg" xmlns="http://www.w3.org/2000/svg" xmlns:sodipodi="http://sodipodi.sourceforge.net/DTD/sodipodi-0.dtd" xmlns:inkscape="http://www.inkscape.org/namespaces/inkscape" version="1.1" id="svg28" xml:space="preserve" class="contactSvg" viewBox="0 0 424.5674 354.78" sodipodi:docname="2742877.svg" inkscape:version="1.0.1 (c497b03c, 2020-09-10)"><metadata id="metadata34"><rdf:rdf><cc:work rdf:about=""><dc:format>image/svg+xml</dc:format><dc:type rdf:resource="http://purl.org/dc/dcmitype/StillImage"></dc:type><dc:title></dc:title><dc:title></dc:title></cc:work></rdf:rdf></metadata><defs id="defs32"><clipPath clipPathUnits="userSpaceOnUse" id="clipPath48"><path d="M 7510.24,4997.4 7510.57,37.6016 10.5664,0 V 1523.33 L 14.4766,5000 7510.24,4997.4" id="path46"></path></clipPath><clipPath clipPathUnits="userSpaceOnUse" id="clipPath92"><path d="M 7100,380 H 4972.68 c -4.83,39.398 -7.65,80.48 -8.38,123.02 -0.55,31.609 0.66,66.75 4.73,104.718 h 1826.04 c 44.32,0 80.26,33.254 80.26,74.254 v 481.348 c 75.78,-13.53 150.87,-20.85 224.67,-21.84 V 380 m -2133.18,0 H 4716.2 c 24.57,71.5 45.58,147.789 62.41,227.738 h 184.57 c -4.04,-37.996 -5.25,-73.168 -4.7,-104.828 0.73,-42.5 3.54,-83.512 8.34,-122.91 m -257.12,0 H 3585.63 c -13.98,83.301 -31.11,162.379 -72.56,227.738 H 4772.62 C 4755.83,528.5 4734.74,452.199 4709.7,380 m -1129.96,0 H 1993.19 c 45.21,71.219 85.55,147.398 120.32,227.738 H 3506.02 C 3548.31,542.809 3565.67,463.57 3579.74,380 M 550,1399.84 v 1639.83 c 28.508,-6.17 57.004,-11.49 85.332,-15.92 V 1459.73 c -18.402,-16.14 -38.418,-31.31 -60.297,-45.32 -8.355,-5.35 -16.699,-10.19 -25.035,-14.57 m 6325.33,1522.72 v 1435.45 c 0,41 -35.94,74.25 -80.26,74.25 h -1087.4 c -19.1,31.64 -39.03,60.84 -59.46,87.74 H 7100 V 3393.08 c -39.59,-64.53 -68.75,-137.79 -98.67,-212.96 -35.16,-88.31 -71.02,-178.39 -126,-257.56 m -2421.04,1509.7 h -2325.1 c 0.26,10.95 0.4,21.87 0.4,32.74 0,18.47 -0.38,36.81 -1.14,55 h 2361.26 c -10.03,-23.99 -19.76,-48.41 -29.56,-73.05 -1.95,-4.89 -3.9,-9.79 -5.86,-14.69" id="path90"></path></clipPath><clipPath clipPathUnits="userSpaceOnUse" id="clipPath104"><path d="M 1993.19,380 H 550 v 1019.84 c 8.336,4.38 16.68,9.22 25.035,14.57 21.879,14.01 41.895,29.18 60.297,45.32 V 681.992 c 0,-41 35.938,-74.254 80.27,-74.254 H 2113.51 C 2078.74,527.398 2038.4,451.219 1993.19,380" id="path102"></path></clipPath><clipPath clipPathUnits="userSpaceOnUse" id="clipPath116"><path d="m 5707.67,4432.26 h -571.65 c 1.26,27.42 3.93,56.78 8.54,87.74 h 503.65 c 20.43,-26.9 40.36,-56.1 59.46,-87.74 m -577.46,0 h -675.92 c 1.96,4.9 3.91,9.8 5.86,14.69 9.8,24.64 19.53,49.06 29.56,73.05 h 648.97 c -4.58,-30.96 -7.23,-60.31 -8.47,-87.74" id="path114"></path></clipPath><clipPath clipPathUnits="userSpaceOnUse" id="clipPath128"><path d="m 7100,1141.5 c -73.8,0.99 -148.89,8.31 -224.67,21.84 v 268.36 c 78.77,-37.74 152.08,-83.22 218.39,-136.06 2.11,-1.68 4.19,-3.35 6.28,-5.05 V 1141.5 m 0,156.6 c -0.89,0.71 -1.79,1.43 -2.69,2.15 -67.36,53.67 -141.86,99.78 -221.98,137.94 v 1372.4 c 61.62,-19.31 126.28,-29.34 188.59,-29.34 12.13,0 24.17,0.38 36.08,1.15 V 1298.1" id="path126"></path></clipPath><clipPath clipPathUnits="userSpaceOnUse" id="clipPath140"><path d="m 7063.82,2787.07 c -62.28,0 -126.94,10.13 -188.49,29.63 v 105.86 c 54.98,79.17 90.84,169.25 126,257.56 29.92,75.17 59.08,148.43 98.67,212.96 v -604.84 c -11.95,-0.78 -24.01,-1.17 -36.18,-1.17" id="path138"></path></clipPath><clipPath clipPathUnits="userSpaceOnUse" id="clipPath152"><path d="m 635.332,3023.75 c -28.328,4.43 -56.824,9.75 -85.332,15.92 V 4520 h 1578.45 c 0.76,-18.19 1.14,-36.53 1.14,-55 0,-10.87 -0.14,-21.79 -0.4,-32.74 H 715.602 c -44.332,0 -80.27,-33.25 -80.27,-74.25 V 3023.75" id="path150"></path></clipPath><clipPath clipPathUnits="userSpaceOnUse" id="clipPath164"><path d="m 4716.2,380 h -6.5 c 25.04,72.199 46.13,148.5 62.92,227.738 h 5.99 C 4761.78,527.789 4740.77,451.5 4716.2,380 m -1130.57,0 h -5.89 c -14.07,83.57 -31.43,162.809 -73.72,227.738 h 7.05 c 41.45,-65.359 58.58,-144.437 72.56,-227.738" id="path162"></path></clipPath><clipPath clipPathUnits="userSpaceOnUse" id="clipPath176"><path d="m 4972.68,380 h -5.86 c -4.8,39.398 -7.61,80.41 -8.34,122.91 -0.55,31.66 0.66,66.832 4.7,104.828 h 5.85 c -4.07,-37.968 -5.28,-73.109 -4.73,-104.718 0.73,-42.54 3.55,-83.622 8.38,-123.02" id="path174"></path></clipPath><clipPath clipPathUnits="userSpaceOnUse" id="clipPath188"><path d="m 7100,1290.59 c -2.09,1.7 -4.17,3.37 -6.28,5.05 -66.31,52.84 -139.62,98.32 -218.39,136.06 v 6.49 c 80.12,-38.16 154.62,-84.27 221.98,-137.94 0.9,-0.72 1.8,-1.44 2.69,-2.15 v -7.51" id="path186"></path></clipPath><clipPath clipPathUnits="userSpaceOnUse" id="clipPath200"><path d="m 5136.02,4432.26 h -5.81 c 1.24,27.43 3.89,56.78 8.47,87.74 h 5.88 c -4.61,-30.96 -7.28,-60.32 -8.54,-87.74" id="path198"></path></clipPath><clipPath clipPathUnits="userSpaceOnUse" id="clipPath212"><path d="m 7063.92,2781.25 c -62.31,0 -126.97,10.03 -188.59,29.34 v 6.11 c 61.55,-19.5 126.21,-29.63 188.49,-29.63 12.17,0 24.23,0.39 36.18,1.17 v -5.84 c -11.91,-0.77 -23.95,-1.15 -36.08,-1.15" id="path210"></path></clipPath></defs><sodipodi:namedview pagecolor="#ffffff" bordercolor="#666666" borderopacity="1" objecttolerance="10" gridtolerance="10" guidetolerance="10" inkscape:pageopacity="0" inkscape:pageshadow="2" inkscape:window-width="1440" inkscape:window-height="855" id="namedview30" showgrid="false" inkscape:zoom="1.0852072" inkscape:cx="234.39536" inkscape:cy="214.50512" inkscape:window-x="0" inkscape:window-y="23" inkscape:window-maximized="0" inkscape:current-layer="g2133" fit-margin-top="0" fit-margin-left="0" fit-margin-right="0" fit-margin-bottom="0"></sodipodi:namedview><g id="g36" inkscape:groupmode="layer" inkscape:label="ink_ext_XXXXXX" transform="matrix(1.3333333,0,0,-1.3333333,-129.09586,506.94532)"><g id="g38" transform="scale(0.1)"><g id="g272" transform="scale(10)"></g><g id="g2133"><path d="m 2619.69,1141.24 c -267.38,0 -534.56,31.72 -792.36,101.83 -99.02,26.93 -198.01,60.4 -289.82,106.07 l 49.11,6.12 420.34,47.36 c 199.53,-53.45 406.13,-77.66 612.89,-77.66 92.88,0 185.77,4.88 278.1,14.19 40.39,4.07 81.11,9.23 121.75,15.71 l 298.31,-44.12 c 7.59,-1.12 15.13,-1.66 22.58,-1.66 74.56,0 139.85,54.6 151.09,130.58 l 13.14,88.83 c 56.71,38.07 108.42,83.12 153.18,136.36 97.06,115.46 152.66,263.53 161.41,414.2 2.38,40.74 1.31,81.66 -3.28,122.19 -15.63,138.02 -71.27,270.35 -155.45,380.95 l 57.79,390.73 c 30.07,-27.1 62.24,-52.47 92.49,-79.12 183.53,-161.72 308.23,-390.91 335.76,-633.97 5.87,-51.73 7.21,-103.97 4.2,-155.97 -11.17,-192.34 -82.16,-381.35 -206.06,-528.74 -232.26,-276.3 -611.08,-379.54 -970.21,-415.76 -117.86,-11.89 -236.41,-18.12 -354.96,-18.12 m -1183.26,265.52 c -42.18,27.57 -81.94,58.65 -118.41,93.92 -185.21,179.12 -263.4,456.62 -215.65,709.81 46.23,245.12 198.2,458.11 403.6,586.26 l 201.67,-201.67 c -79,-57.26 -146.03,-131.22 -195.46,-216.2 l -69.21,-7.8 5.36,-4.43 -21.1,-2.37 60.36,-31.57 c -25.93,-53.47 -45.12,-110.58 -56.35,-170.12 -4.08,-21.64 -6.98,-43.48 -8.74,-65.44 l -52.78,-52.21 -0.16,-0.02 0.02,-0.12 -0.26,-0.26 c -2.62,-1.22 -4.29,-4.01 -3.96,-7.03 l 71.07,-630.75 m 449.9,1281.14 -136.21,136.21 c -8.87,8.87 -8.87,23.27 0,32.15 l 56.39,56.39 c 39.35,6.89 79.49,10.92 120.21,11.89 109.23,2.59 195.05,94.53 187.73,203.87 -0.23,3.48 -0.45,6.23 -0.65,8.11 -44.28,423.28 342.51,665.57 722.92,665.57 92.69,0 185.02,-14.39 270.62,-44.05 146.54,-50.77 276.47,-149.64 365.64,-276.42 13.45,-19.13 24.74,-38.73 34.48,-58.66 l -618.64,91.5 c -7.59,1.12 -15.12,1.67 -22.57,1.67 -67.71,0 -127.79,-45.04 -146.67,-110.21 -273.32,-27.26 -527.96,-212.41 -496,-517.89 0.15,-1.48 0.32,-3.63 0.5,-6.36 5.74,-85.65 -61.49,-157.68 -147.06,-159.7 -65.99,-1.57 -130.09,-13.45 -190.69,-34.07" style="fill:#ecf2fa;fill-opacity:1;fill-rule:nonzero;stroke:none" id="path282"></path><path d="m 2619.85,1324.96 c -206.76,0 -413.36,24.21 -612.89,77.66 l 491.71,55.4 c 21.67,-19.68 49.22,-33.37 80.36,-37.98 l 440.67,-65.18 c -40.64,-6.48 -81.36,-11.64 -121.75,-15.71 -92.33,-9.31 -185.22,-14.19 -278.1,-14.19 m 884.97,203.53 155.86,1053.7 c 84.18,-110.6 139.82,-242.93 155.45,-380.95 4.59,-40.53 5.66,-81.45 3.28,-122.19 -8.75,-150.67 -64.35,-298.74 -161.41,-414.2 -44.76,-53.24 -96.47,-98.29 -153.18,-136.36 m -1005.34,398.95 -26.47,234.87 c -0.36,3.23 -2.86,5.68 -5.97,6.07 -0.36,0.39 -0.77,0.73 -1.23,1.01 l -91.65,56.92 c 20.47,11.97 39.75,26.72 57.3,44.28 l 67.4,67.39 c 25.45,25.45 25.45,66.71 0,92.16 l -230.03,230.03 c -12.73,12.72 -29.4,19.08 -46.08,19.08 -16.67,0 -33.35,-6.36 -46.08,-19.08 l -115.01,-115.02 c -4.5,-4.5 -10.4,-6.75 -16.29,-6.75 -5.9,0 -11.79,2.25 -16.29,6.75 l -142.75,142.75 c 60.6,20.62 124.7,32.5 190.69,34.07 85.57,2.02 152.8,74.05 147.06,159.7 -0.18,2.73 -0.35,4.88 -0.5,6.36 -31.96,305.48 222.68,490.63 496,517.89 -1.91,-6.6 -3.4,-13.4 -4.43,-20.38 L 2499.48,1927.44 M 1422.5,2097.15 c 1.76,21.96 4.66,43.8 8.74,65.44 11.23,59.54 30.42,116.65 56.35,170.12 l 4.88,-2.56 18.59,-15.37 13.18,-117.02 -101.74,-100.61 m 89.68,281.73 c 49.43,84.98 116.46,158.94 195.46,216.2 l 108.57,-108.57 -83.73,-82.81 -220.3,-24.82" style="fill:#d0ddf3;fill-opacity:1;fill-rule:nonzero;stroke:none" id="path284"></path><path d="m 3965.82,3310.84 c -54.44,0 -98.58,44.13 -98.58,98.58 0,54.45 44.14,98.59 98.58,98.59 54.45,0 98.59,-44.14 98.59,-98.59 0,-54.45 -44.14,-98.58 -98.59,-98.58" style="fill:#f2f6fc;fill-opacity:1;fill-rule:nonzero;stroke:none" id="path286"></path><path d="m 1800.52,3409.42 c -63.14,0 -114.32,51.19 -114.32,114.33 0,63.13 51.18,114.31 114.32,114.31 63.14,0 114.32,-51.18 114.32,-114.31 0,-63.14 -51.18,-114.33 -114.32,-114.33" style="fill:#f2f6fc;fill-opacity:1;fill-rule:nonzero;stroke:none" id="path288"></path><path d="m 1115.87,1180.13 c -81.54,0 -147.651,66.1 -147.651,147.64 0,81.55 66.111,147.65 147.651,147.65 81.54,0 147.65,-66.1 147.65,-147.65 0,-81.54 -66.11,-147.64 -147.65,-147.64" style="fill:#f2f6fc;fill-opacity:1;fill-rule:nonzero;stroke:none" id="path290"></path><path d="m 2804.17,3016.07 c 0,-289.01 -234.28,-523.3 -523.3,-523.3 -289,0 -523.3,234.29 -523.3,523.3 0,289.01 234.3,523.3 523.3,523.3 289.02,0 523.3,-234.29 523.3,-523.3" style="fill:#b092d0;fill-opacity:1;fill-rule:nonzero;stroke:none" id="path292"></path><path d="m 2644.23,2639.21 c -1.28,0 -2.56,0.49 -3.53,1.47 -1.95,1.95 -1.95,5.12 0,7.07 97.89,97.89 151.81,228.05 151.81,366.49 0,138.45 -53.92,268.6 -151.81,366.5 -97.9,97.89 -228.05,151.81 -366.5,151.81 -138.44,0 -268.59,-53.92 -366.49,-151.81 -1.95,-1.96 -5.12,-1.96 -7.07,0 -1.95,1.95 -1.95,5.11 0,7.07 99.78,99.78 232.45,154.74 373.56,154.74 141.12,0 273.79,-54.96 373.57,-154.74 99.78,-99.78 154.74,-232.45 154.74,-373.57 0,-141.11 -54.96,-273.78 -154.74,-373.56 -0.98,-0.98 -2.26,-1.47 -3.54,-1.47" style="fill:#253460;fill-opacity:1;fill-rule:nonzero;stroke:none" id="path294"></path><path d="m 2679.09,3016.07 c 0,-219.93 -178.28,-398.22 -398.22,-398.22 -219.92,0 -398.21,178.29 -398.21,398.22 0,219.93 178.29,398.22 398.21,398.22 219.94,0 398.22,-178.29 398.22,-398.22" style="fill:#ffffff;fill-opacity:1;fill-rule:nonzero;stroke:none" id="path296"></path><path d="m 2280.87,2612.85 c -222.33,0 -403.21,180.89 -403.21,403.22 0,222.33 180.88,403.22 403.21,403.22 2.77,0 5,-2.24 5,-5 0,-2.77 -2.23,-5 -5,-5 -216.81,0 -393.21,-176.4 -393.21,-393.22 0,-216.82 176.4,-393.22 393.21,-393.22 2.77,0 5,-2.23 5,-5 0,-2.76 -2.23,-5 -5,-5" style="fill:#253460;fill-opacity:1;fill-rule:nonzero;stroke:none" id="path298"></path><path d="m 2384.04,2939.96 h -108.33 c -22.22,0 -40.3,18.08 -40.3,40.3 v 150.19 c 0,19.34 15.67,35 35,35 19.33,0 35,-15.66 35,-35 v -120.49 h 78.63 c 19.33,0 35,-15.67 35,-35 0,-19.33 -15.67,-35 -35,-35" style="fill:#253460;fill-opacity:1;fill-rule:nonzero;stroke:none" id="path300"></path><g id="g2176"><path d="m 1468.42,2834.3 563.72,-563.71 c 110.27,-110.28 289.05,-110.28 399.32,0 l 67.4,67.39 c 25.45,25.45 25.45,66.71 0,92.16 l -230.03,230.03 c -25.45,25.45 -66.71,25.45 -92.16,0 l -115.01,-115.02 c -9,-9 -23.58,-9 -32.58,0 l -278.96,278.96 c -8.87,8.87 -8.87,23.27 0,32.15 l 113.42,113.42 c 25.45,25.45 25.45,66.7 0,92.15 l -236.26,236.26 c -25.13,25.13 -65.77,25.49 -91.34,0.8 l -64,-61.81 c -113.57,-109.67 -115.15,-291.15 -3.52,-402.78" style="fill:#253460;fill-opacity:1;fill-rule:nonzero;stroke:none" id="path302"></path><path d="m 1486.07,3225.72 316.76,-316.76 10.86,10.86 49.85,49.86 c 25.45,25.45 25.45,66.7 0,92.15 l -236.25,236.26 c -25.14,25.13 -65.78,25.49 -91.35,0.8 l -64,-61.81 14.13,-11.36" style="fill:#f0f5fa;fill-opacity:1;fill-rule:nonzero;stroke:none" id="path304"></path><path d="m 1479.49,3237.42 10.12,-8.17 313.22,-313.21 57.17,57.17 c 11.37,11.37 17.63,26.48 17.63,42.55 0,16.06 -6.26,31.17 -17.63,42.54 l -236.25,236.26 c -23.06,23.06 -60.89,23.38 -84.34,0.73 z m 323.34,-335.53 -320.1,320.1 -18.35,14.74 68.09,65.76 c 27.35,26.39 71.47,26.02 98.35,-0.86 l 236.26,-236.26 c 27.35,-27.36 27.35,-71.87 0,-99.23 l -64.25,-64.25" style="fill:#253460;fill-opacity:1;fill-rule:nonzero;stroke:none" id="path306"></path><path d="m 2130.44,2592.21 316.75,-316.75 10.86,10.86 49.86,49.85 c 25.44,25.45 25.44,66.71 0,92.15 l -236.26,236.26 c -25.13,25.14 -65.77,25.49 -91.34,0.8 l -64.01,-61.81 14.14,-11.36" style="fill:#f0f5fa;fill-opacity:1;fill-rule:nonzero;stroke:none" id="path308"></path><path d="m 2123.86,2603.92 10.11,-8.17 313.22,-313.22 57.19,57.18 c 11.36,11.36 17.61,26.47 17.61,42.54 0,16.07 -6.25,31.18 -17.61,42.54 l -236.26,236.26 c -23.06,23.04 -60.89,23.38 -84.34,0.73 z m 323.33,-335.53 -320.1,320.1 -18.34,14.73 68.09,65.76 c 27.35,26.4 71.47,26.02 98.35,-0.86 l 236.26,-236.26 c 13.25,-13.26 20.54,-30.87 20.54,-49.61 0,-18.74 -7.29,-36.36 -20.54,-49.61 l -64.26,-64.25" style="fill:#253460;fill-opacity:1;fill-rule:nonzero;stroke:none" id="path310"></path><path d="m 1510.34,3263.07 193,-193.01" style="fill:#f0f5fa;fill-opacity:1;fill-rule:nonzero;stroke:none" id="path312"></path><path d="m 1703.34,3065.06 c -1.28,0 -2.56,0.49 -3.54,1.47 l -193,193 c -1.95,1.95 -1.95,5.12 0,7.07 1.95,1.95 5.12,1.95 7.07,0 l 193.01,-193 c 1.95,-1.95 1.95,-5.12 0,-7.07 -0.98,-0.98 -2.26,-1.47 -3.54,-1.47" style="fill:#253460;fill-opacity:1;fill-rule:nonzero;stroke:none" id="path314"></path><path d="m 2278.06,2495.35 193,-193.01" style="fill:#f0f5fa;fill-opacity:1;fill-rule:nonzero;stroke:none" id="path316"></path><path d="m 2471.06,2297.34 c -1.27,0 -2.55,0.49 -3.53,1.47 l -193.01,193 c -1.95,1.95 -1.95,5.12 0,7.07 1.95,1.95 5.12,1.95 7.07,0 l 193.01,-193 c 1.95,-1.95 1.95,-5.12 0,-7.07 -0.98,-0.98 -2.26,-1.47 -3.54,-1.47" style="fill:#253460;fill-opacity:1;fill-rule:nonzero;stroke:none" id="path318"></path></g><path d="m 3318.01,1310.74 -738.98,109.3 c -83.56,12.36 -141.28,90.12 -128.92,173.67 l 265.04,1791.83 c 12.36,83.56 90.11,141.28 173.67,128.92 l 738.98,-109.3 c 83.55,-12.36 141.27,-90.12 128.91,-173.68 L 3491.68,1439.66 c -12.36,-83.57 -90.11,-141.28 -173.67,-128.92" style="fill:#253460;fill-opacity:1;fill-rule:nonzero;stroke:none" id="path320"></path><path d="m 3440.07,1519.38 -917.48,135.72 250.28,1692.07 917.48,-135.7 -250.28,-1692.09" style="fill:#f0f5fa;fill-opacity:1;fill-rule:nonzero;stroke:none" id="path322"></path><path d="m 3671.57,3084.5 -917.48,135.7 18.78,126.97 917.48,-135.71 -18.78,-126.96" style="fill:#b092d0;fill-opacity:1;fill-rule:nonzero;stroke:none" id="path324"></path><path d="m 2965.67,1532.08 c -10.62,0 -20.92,-3.39 -29.61,-9.83 -10.69,-7.94 -17.66,-19.57 -19.6,-32.76 -1.96,-13.18 1.34,-26.34 9.28,-37.03 7.95,-10.7 19.58,-17.67 32.76,-19.62 27.24,-4.04 52.62,14.85 56.64,42.05 1.94,13.18 -1.36,26.33 -9.3,37.02 -7.93,10.71 -19.57,17.67 -32.75,19.62 -2.47,0.36 -4.96,0.55 -7.42,0.55 z m 0.16,-109.78 c -2.91,0 -5.84,0.22 -8.8,0.66 -15.82,2.33 -29.78,10.69 -39.32,23.53 -9.53,12.86 -13.49,28.64 -11.15,44.47 2.34,15.82 10.71,29.78 23.55,39.31 12.84,9.53 28.65,13.53 44.45,11.15 15.82,-2.34 29.78,-10.7 39.32,-23.54 9.53,-12.84 13.49,-28.63 11.15,-44.45 -4.4,-29.71 -30.03,-51.13 -59.2,-51.13" style="fill:#f0f5fa;fill-opacity:1;fill-rule:nonzero;stroke:none" id="path326"></path><path d="m 3098.37,3391.85 c -1.97,0 -3.88,-0.63 -5.49,-1.83 -1.99,-1.47 -3.28,-3.62 -3.64,-6.07 -0.36,-2.45 0.25,-4.88 1.72,-6.87 1.48,-1.98 3.63,-3.28 6.08,-3.64 2.47,-0.37 4.88,0.26 6.87,1.73 1.98,1.47 3.28,3.62 3.64,6.07 0.36,2.45 -0.26,4.89 -1.73,6.87 -1.47,1.99 -3.63,3.28 -6.07,3.64 z m 0.04,-28.51 c -0.93,0 -1.88,0.07 -2.83,0.21 -5.09,0.75 -9.58,3.44 -12.65,7.57 -3.06,4.13 -4.34,9.21 -3.58,14.3 0.75,5.08 3.44,9.57 7.57,12.64 4.12,3.07 9.17,4.36 14.29,3.58 5.08,-0.75 9.58,-3.44 12.64,-7.57 3.07,-4.13 4.34,-9.2 3.59,-14.29 v 0 c -1.41,-9.56 -9.65,-16.44 -19.03,-16.44" style="fill:#f0f5fa;fill-opacity:1;fill-rule:nonzero;stroke:none" id="path328"></path><path d="m 3162.31,3382.4 c -4.51,0 -8.47,-3.31 -9.15,-7.91 -0.36,-2.44 0.25,-4.88 1.72,-6.87 1.48,-1.98 3.64,-3.27 6.08,-3.64 l 234.07,-34.61 c 5.05,-0.77 9.77,2.74 10.51,7.8 0.36,2.44 -0.25,4.88 -1.72,6.86 -1.48,1.99 -3.63,3.28 -6.08,3.65 l -234.07,34.61 z m 234.12,-63.14 c -0.95,0 -1.9,0.07 -2.86,0.21 l -234.07,34.62 c -5.09,0.75 -9.58,3.44 -12.64,7.57 -3.07,4.13 -4.35,9.21 -3.59,14.3 0.75,5.08 3.44,9.57 7.56,12.64 4.14,3.07 9.24,4.32 14.3,3.59 l 234.07,-34.62 c 5.09,-0.75 9.58,-3.44 12.65,-7.57 3.06,-4.14 4.34,-9.21 3.58,-14.3 -0.75,-5.08 -3.44,-9.57 -7.56,-12.64 -3.36,-2.49 -7.34,-3.8 -11.44,-3.8" style="fill:#f0f5fa;fill-opacity:1;fill-rule:nonzero;stroke:none" id="path330"></path><path d="m 3443.86,2037.11 -640.02,94.67 c -10.42,1.54 -20.11,-5.67 -21.66,-16.09 l -24.56,-166.03 c -1.54,-10.43 5.66,-20.13 16.08,-21.66 l 547.19,-80.94 56.37,-77.75 10.04,67.93 26.42,-3.91 c 10.42,-1.54 20.12,5.65 21.66,16.07 l 24.56,166.05 c 1.54,10.42 -5.66,20.12 -16.08,21.66" style="fill:#ccdaf2;fill-opacity:1;fill-rule:nonzero;stroke:none" id="path332"></path><path d="m 3320.89,1842.06 -0.73,0.06 -547.19,80.94 c -6.36,0.92 -11.97,4.28 -15.81,9.45 -3.83,5.17 -5.42,11.51 -4.48,17.88 l 24.56,166.04 c 1.94,13.13 14.17,22.36 27.34,20.29 l 147.9,-21.89 c 2.73,-0.4 4.62,-2.94 4.21,-5.67 -0.4,-2.72 -2.96,-4.62 -5.67,-4.21 l -147.91,21.89 c -7.69,1.07 -14.84,-4.2 -15.98,-11.88 l -24.56,-166.03 c -0.55,-3.72 0.38,-7.44 2.62,-10.45 2.24,-3.02 5.52,-4.98 9.24,-5.53 L 3321.62,1852 c 2.73,-0.4 4.62,-2.94 4.21,-5.67 -0.36,-2.48 -2.5,-4.27 -4.94,-4.27" style="fill:#253460;fill-opacity:1;fill-rule:nonzero;stroke:none" id="path334"></path><path d="m 3545.63,2725.12 -640.02,94.66 c -10.42,1.54 -20.12,-5.65 -21.66,-16.07 l -24.56,-166.05 c -1.54,-10.42 5.65,-20.12 16.07,-21.66 l 547.19,-80.93 56.37,-77.76 10.05,67.93 26.42,-3.9 c 10.42,-1.55 20.12,5.65 21.65,16.07 l 24.56,166.05 c 1.55,10.42 -5.65,20.11 -16.07,21.66" style="fill:#ccdaf2;fill-opacity:1;fill-rule:nonzero;stroke:none" id="path336"></path><path d="m 3482.17,2444.45 -62.33,85.98 -545.11,80.62 c -13.13,1.95 -22.23,14.21 -20.29,27.34 0.41,2.74 2.95,4.55 5.68,4.22 2.73,-0.41 4.62,-2.95 4.22,-5.68 -0.56,-3.72 0.38,-7.43 2.62,-10.45 2.23,-3.02 5.52,-4.98 9.24,-5.53 l 549.26,-81.24 50.41,-69.53 8.99,60.74 31.36,-4.64 c 3.71,-0.54 7.43,0.38 10.45,2.62 3.01,2.24 4.98,5.52 5.53,9.24 l 16.34,110.46 c 0.4,2.73 2.93,4.59 5.67,4.22 2.73,-0.41 4.62,-2.95 4.22,-5.68 l -16.34,-110.46 c -0.94,-6.36 -4.3,-11.97 -9.46,-15.81 -5.17,-3.83 -11.53,-5.42 -17.87,-4.48 l -21.47,3.18 -11.12,-75.12" style="fill:#253460;fill-opacity:1;fill-rule:nonzero;stroke:none" id="path338"></path><path d="m 2735.51,2511.18 640.02,-94.67 c 10.42,-1.54 17.61,-11.24 16.08,-21.66 l -24.56,-166.04 c -1.55,-10.42 -11.24,-17.62 -21.66,-16.08 l -547.19,80.93 -76.47,-58.09 10.05,67.92 -26.41,3.9 c -10.42,1.55 -17.62,11.24 -16.08,21.66 l 24.56,166.05 c 1.54,10.42 11.24,17.62 21.66,16.08" style="fill:#b092d0;fill-opacity:1;fill-rule:nonzero;stroke:none" id="path340"></path><path d="m 3348.23,2207.52 c -1.18,0 -2.38,0.09 -3.58,0.27 l -341.57,50.52 c -2.73,0.4 -4.62,2.94 -4.21,5.67 0.4,2.73 2.93,4.64 5.68,4.21 l 341.57,-50.51 c 3.72,-0.53 7.42,0.38 10.45,2.62 3.01,2.24 4.98,5.52 5.53,9.24 l 24.56,166.05 c 1.13,7.67 -4.19,14.84 -11.87,15.98 -2.72,0.4 -4.61,2.94 -4.21,5.68 0.41,2.72 2.94,4.59 5.68,4.21 13.13,-1.95 22.23,-14.2 20.29,-27.34 l -24.56,-166.04 c -0.94,-6.36 -4.3,-11.98 -9.47,-15.81 -4.19,-3.11 -9.16,-4.75 -14.29,-4.75" style="fill:#253460;fill-opacity:1;fill-rule:nonzero;stroke:none" id="path342"></path><path d="m 3440.07,1519.38 -917.48,135.72 23.03,155.68 917.48,-135.71 -23.03,-155.69" style="fill:#ffffff;fill-opacity:1;fill-rule:nonzero;stroke:none" id="path344"></path><path d="m 2681.02,1712.6 c -4.51,-30.49 -32.88,-51.56 -63.37,-47.04 -30.49,4.51 -51.55,32.88 -47.03,63.37 4.51,30.48 32.88,51.55 63.36,47.04 30.49,-4.51 51.55,-32.88 47.04,-63.37" style="fill:#ccdaf2;fill-opacity:1;fill-rule:nonzero;stroke:none" id="path346"></path><path d="m 3357.67,1561.36 c -2.41,0 -4.85,0.17 -7.31,0.54 l -594.59,87.95 c -13.14,1.94 -24.75,8.89 -32.67,19.57 -7.92,10.67 -11.22,23.79 -9.27,36.94 3.65,24.64 24.92,42.49 49.11,42.49 2.44,0 4.91,-0.18 7.39,-0.56 l 594.6,-87.95 c 27.14,-4 45.95,-29.34 41.94,-56.49 -3.65,-24.69 -24.95,-42.49 -49.2,-42.49 m -594.6,177.47 c -19.4,0 -36.42,-14.19 -39.35,-33.94 -1.55,-10.51 1.07,-20.98 7.41,-29.52 6.33,-8.52 15.6,-14.08 26.11,-15.62 l 594.59,-87.96 c 1.93,-0.28 3.86,-0.42 5.77,-0.42 19.41,0 36.46,14.2 39.38,33.94 1.55,10.51 -1.08,20.99 -7.41,29.51 -6.33,8.53 -15.6,14.09 -26.11,15.63 l -594.59,87.96 c -1.95,0.28 -3.89,0.42 -5.8,0.42" style="fill:#e9ddf1;fill-opacity:1;fill-rule:nonzero;stroke:none" id="path348"></path><path d="m 2829.91,3285.07 c -2.04,0 -4.02,-0.65 -5.68,-1.89 -2.06,-1.52 -3.4,-3.76 -3.77,-6.3 -0.38,-2.52 0.26,-5.05 1.79,-7.1 1.52,-2.06 3.75,-3.39 6.29,-3.77 5.18,-0.78 10.1,2.85 10.87,8.08 0.38,2.53 -0.25,5.05 -1.78,7.11 -1.53,2.05 -3.76,3.38 -6.29,3.76 z m 0.04,-29.16 c -0.95,0 -1.91,0.07 -2.88,0.21 -10.68,1.58 -18.08,11.55 -16.5,22.23 0.76,5.18 3.5,9.74 7.7,12.86 4.2,3.12 9.36,4.42 14.53,3.64 10.68,-1.57 18.08,-11.54 16.51,-22.23 -1.44,-9.71 -9.83,-16.71 -19.36,-16.71" style="fill:#ffffff;fill-opacity:1;fill-rule:nonzero;stroke:none" id="path350"></path><path d="m 2884.05,3277.06 c -4.67,0 -8.77,-3.42 -9.47,-8.18 -0.38,-2.53 0.25,-5.05 1.78,-7.11 1.53,-2.05 3.76,-3.39 6.29,-3.76 2.53,-0.38 5.06,0.25 7.11,1.78 2.06,1.52 3.39,3.75 3.77,6.29 0.37,2.53 -0.26,5.06 -1.79,7.11 -1.52,2.06 -3.75,3.39 -6.29,3.77 z m 0.05,-29.16 c -0.97,0 -1.94,0.07 -2.91,0.22 -10.68,1.57 -18.08,11.54 -16.51,22.23 1.58,10.67 11.57,18.04 22.24,16.5 5.17,-0.77 9.74,-3.5 12.86,-7.7 3.11,-4.2 4.4,-9.36 3.64,-14.54 -0.77,-5.17 -3.5,-9.73 -7.7,-12.85 -3.41,-2.53 -7.45,-3.86 -11.62,-3.86" style="fill:#ffffff;fill-opacity:1;fill-rule:nonzero;stroke:none" id="path352"></path><path d="m 2937.12,3269.21 c -2.03,0 -4.01,-0.65 -5.68,-1.89 -2.06,-1.52 -3.39,-3.76 -3.77,-6.29 -0.38,-2.53 0.26,-5.05 1.78,-7.11 1.53,-2.05 3.76,-3.39 6.29,-3.77 5.21,-0.73 10.1,2.85 10.88,8.08 0.77,5.22 -2.85,10.1 -8.08,10.88 z m 0.03,-29.16 c -0.94,0 -1.91,0.07 -2.87,0.21 -10.69,1.59 -18.08,11.56 -16.5,22.24 1.58,10.67 11.56,18.05 22.23,16.5 10.68,-1.59 18.08,-11.56 16.5,-22.24 -1.43,-9.71 -9.82,-16.71 -19.36,-16.71" style="fill:#ffffff;fill-opacity:1;fill-rule:nonzero;stroke:none" id="path354"></path><path d="m 3684.01,3077.66 -0.73,0.05 -849.28,125.62 c -2.73,0.4 -4.62,2.94 -4.21,5.67 0.4,2.73 2.92,4.61 5.67,4.22 l 849.28,-125.62 c 2.73,-0.4 4.62,-2.94 4.22,-5.68 -0.37,-2.48 -2.5,-4.26 -4.95,-4.26" style="fill:#253460;fill-opacity:1;fill-rule:nonzero;stroke:none" id="path356"></path><path d="m 3329.96,1998.86 -0.74,0.06 -453.14,67.02 c -2.73,0.4 -4.62,2.94 -4.21,5.67 0.4,2.74 2.9,4.68 5.68,4.21 l 453.14,-67.02 c 2.73,-0.4 4.62,-2.94 4.21,-5.68 -0.36,-2.48 -2.5,-4.26 -4.94,-4.26" style="fill:#ffffff;fill-opacity:1;fill-rule:nonzero;stroke:none" id="path358"></path><path d="m 3061.69,1983.3 -0.74,0.06 -192.86,28.52 c -2.73,0.41 -4.62,2.94 -4.22,5.68 0.4,2.72 2.9,4.64 5.68,4.21 l 192.87,-28.53 c 2.73,-0.4 4.62,-2.94 4.21,-5.67 -0.37,-2.48 -2.5,-4.27 -4.94,-4.27" style="fill:#ffffff;fill-opacity:1;fill-rule:nonzero;stroke:none" id="path360"></path><path d="m 2996.7,1941.2 -0.73,0.06 -135.36,20.02 c -2.73,0.4 -4.62,2.94 -4.22,5.67 0.41,2.73 2.98,4.64 5.68,4.21 l 135.36,-20.02 c 2.73,-0.4 4.62,-2.94 4.22,-5.67 -0.37,-2.48 -2.51,-4.27 -4.95,-4.27" style="fill:#ffffff;fill-opacity:1;fill-rule:nonzero;stroke:none" id="path362"></path><path d="m 3321.97,1944.8 -0.74,0.06 -199.32,29.48 c -2.73,0.4 -4.62,2.94 -4.21,5.67 0.4,2.72 2.91,4.65 5.67,4.21 l 199.33,-29.47 c 2.72,-0.4 4.61,-2.94 4.21,-5.68 -0.37,-2.48 -2.5,-4.27 -4.94,-4.27" style="fill:#ffffff;fill-opacity:1;fill-rule:nonzero;stroke:none" id="path364"></path><path d="m 3274.63,2374.89 -0.73,0.06 -453.15,67.02 c -2.73,0.4 -4.62,2.94 -4.21,5.68 0.4,2.73 2.91,4.66 5.68,4.21 l 453.14,-67.03 c 2.73,-0.4 4.62,-2.94 4.22,-5.67 -0.37,-2.48 -2.51,-4.27 -4.95,-4.27" style="fill:#ffffff;fill-opacity:1;fill-rule:nonzero;stroke:none" id="path366"></path><path d="m 3006.36,2359.34 -0.73,0.05 -192.87,28.53 c -2.73,0.4 -4.62,2.94 -4.22,5.67 0.41,2.73 2.95,4.6 5.68,4.21 l 192.87,-28.52 c 2.73,-0.4 4.62,-2.94 4.21,-5.68 -0.36,-2.48 -2.5,-4.26 -4.94,-4.26" style="fill:#ffffff;fill-opacity:1;fill-rule:nonzero;stroke:none" id="path368"></path><path d="m 3206.76,2277.98 -0.77,0.06 -391.08,60.67 c -2.73,0.42 -4.6,2.98 -4.17,5.7 0.42,2.73 2.99,4.59 5.71,4.18 l 391.07,-60.67 c 2.73,-0.42 4.6,-2.98 4.18,-5.7 -0.39,-2.47 -2.52,-4.24 -4.94,-4.24" style="fill:#ffffff;fill-opacity:1;fill-rule:nonzero;stroke:none" id="path370"></path><path d="m 3266.64,2320.83 -0.74,0.06 -199.32,29.48 c -2.73,0.4 -4.62,2.94 -4.22,5.67 0.4,2.73 2.92,4.64 5.68,4.21 l 199.32,-29.48 c 2.73,-0.4 4.62,-2.94 4.22,-5.67 -0.37,-2.48 -2.5,-4.27 -4.94,-4.27" style="fill:#ffffff;fill-opacity:1;fill-rule:nonzero;stroke:none" id="path372"></path><path d="m 2817.7,3135.38 640.02,-94.67 c 10.42,-1.54 17.62,-11.24 16.08,-21.66 l -24.56,-166.04 c -1.54,-10.43 -11.24,-17.62 -21.66,-16.08 l -547.19,80.94 -76.46,-58.11 10.04,67.93 -26.41,3.91 c -10.42,1.53 -17.62,11.23 -16.08,21.65 l 24.56,166.05 c 1.54,10.42 11.24,17.61 21.66,16.08" style="fill:#b092d0;fill-opacity:1;fill-rule:nonzero;stroke:none" id="path374"></path><path d="m 3449.24,2848.01 -0.73,0.05 c -2.73,0.41 -4.62,2.95 -4.22,5.68 l 24.56,166.04 c 0.55,3.72 -0.38,7.43 -2.62,10.44 -2.24,3.03 -5.52,4.99 -9.24,5.54 l -397.38,58.78 c -2.73,0.4 -4.61,2.94 -4.21,5.67 0.41,2.73 2.98,4.56 5.68,4.22 l 397.37,-58.78 c 6.36,-0.94 11.97,-4.3 15.81,-9.46 3.84,-5.16 5.43,-11.51 4.49,-17.87 l -24.57,-166.04 c -0.36,-2.49 -2.5,-4.27 -4.94,-4.27" style="fill:#253460;fill-opacity:1;fill-rule:nonzero;stroke:none" id="path376"></path><path d="m 3356.83,2999.09 -0.74,0.05 -453.15,67.03 c -2.73,0.4 -4.61,2.94 -4.21,5.68 0.4,2.73 2.9,4.59 5.68,4.21 l 453.14,-67.03 c 2.73,-0.4 4.62,-2.94 4.22,-5.68 -0.37,-2.48 -2.5,-4.26 -4.94,-4.26" style="fill:#ffffff;fill-opacity:1;fill-rule:nonzero;stroke:none" id="path378"></path><path d="m 3088.55,2983.53 -0.73,0.05 -192.87,28.53 c -2.73,0.4 -4.62,2.94 -4.21,5.68 0.4,2.73 2.94,4.61 5.68,4.21 l 192.86,-28.52 c 2.73,-0.41 4.62,-2.95 4.22,-5.68 -0.37,-2.48 -2.5,-4.27 -4.95,-4.27" style="fill:#ffffff;fill-opacity:1;fill-rule:nonzero;stroke:none" id="path380"></path><path d="m 3288.96,2902.18 -0.78,0.06 -391.08,60.67 c -2.72,0.42 -4.6,2.98 -4.17,5.71 0.42,2.72 3.01,4.55 5.71,4.17 l 391.08,-60.67 c 2.73,-0.43 4.6,-2.98 4.17,-5.71 -0.38,-2.47 -2.51,-4.23 -4.93,-4.23" style="fill:#ffffff;fill-opacity:1;fill-rule:nonzero;stroke:none" id="path382"></path><path d="m 3348.83,2945.03 -0.74,0.06 -199.32,29.48 c -2.73,0.41 -4.62,2.94 -4.21,5.68 0.4,2.73 2.9,4.61 5.67,4.21 l 199.33,-29.48 c 2.73,-0.4 4.61,-2.94 4.21,-5.68 -0.37,-2.48 -2.5,-4.27 -4.94,-4.27" style="fill:#ffffff;fill-opacity:1;fill-rule:nonzero;stroke:none" id="path384"></path><path d="m 3432.13,2680.5 -0.74,0.06 -453.14,67.02 c -2.73,0.41 -4.62,2.95 -4.22,5.68 0.4,2.73 2.9,4.62 5.68,4.22 l 453.15,-67.03 c 2.73,-0.41 4.62,-2.95 4.21,-5.68 -0.37,-2.48 -2.5,-4.27 -4.94,-4.27" style="fill:#ffffff;fill-opacity:1;fill-rule:nonzero;stroke:none" id="path386"></path><path d="m 3163.86,2664.95 -0.74,0.05 -192.87,28.53 c -2.73,0.41 -4.62,2.94 -4.21,5.68 0.4,2.73 2.97,4.63 5.68,4.21 l 192.86,-28.53 c 2.73,-0.4 4.62,-2.94 4.22,-5.68 -0.37,-2.48 -2.5,-4.26 -4.94,-4.26" style="fill:#ffffff;fill-opacity:1;fill-rule:nonzero;stroke:none" id="path388"></path><path d="m 3098.87,2622.85 -0.74,0.06 -135.36,20.01 c -2.73,0.41 -4.62,2.95 -4.22,5.68 0.41,2.73 2.95,4.63 5.68,4.22 l 135.36,-20.02 c 2.73,-0.41 4.62,-2.95 4.22,-5.68 -0.37,-2.48 -2.51,-4.27 -4.94,-4.27" style="fill:#ffffff;fill-opacity:1;fill-rule:nonzero;stroke:none" id="path390"></path><path d="m 3424.13,2626.45 -0.74,0.05 -199.32,29.49 c -2.73,0.4 -4.62,2.94 -4.21,5.68 0.4,2.72 2.9,4.63 5.68,4.21 l 199.32,-29.48 c 2.73,-0.41 4.62,-2.95 4.21,-5.68 -0.36,-2.48 -2.5,-4.27 -4.94,-4.27" style="fill:#ffffff;fill-opacity:1;fill-rule:nonzero;stroke:none" id="path392"></path><path d="M 2510.7,1464.41 1484.15,1348.75 c -19.72,-2.22 -37.5,11.96 -39.72,31.69 l -74.1,657.63 c -0.12,1.04 0.63,1.98 1.67,2.1 l 1093.95,123.25 c 1.04,0.12 1.98,-0.64 2.1,-1.67 l 74.12,-657.88 c 2.2,-19.58 -11.88,-37.25 -31.47,-39.46" style="fill:#f795b4;fill-opacity:1;fill-rule:nonzero;stroke:none" id="path394"></path><path d="m 1534.2,1348.74 c -0.39,0 -0.62,0.18 -0.71,0.54 l 3.06,0.34 c 0.33,-0.16 0.64,-0.32 0.96,-0.48 l -3.16,-0.39 c -0.05,-0.01 -0.1,-0.01 -0.15,-0.01" style="fill:#c0c4d1;fill-opacity:1;fill-rule:nonzero;stroke:none" id="path398"></path><path d="m 1537.51,1349.14 c -0.32,0.16 -0.63,0.32 -0.96,0.48 l 50.07,5.64 -49.11,-6.12" style="fill:#b0b9d4;fill-opacity:1;fill-rule:nonzero;stroke:none" id="path400"></path><path d="m 2461.43,1468.6 -70.14,61.93 -19.39,18.92 c 45.76,-38.85 81.16,-69.94 89.53,-80.85 m -352.59,337.65 -0.66,0.65 18.56,17.07 -17.9,-17.72 m -553.75,117.71 -179.35,110.77 -0.09,0.82 164.78,18.56 14.66,-130.15 m 730.37,57.08 -17.47,155.04 195.3,22.01 c 0.04,0 0.09,0.01 0.14,0.01 l 0.09,-0.83 -178.06,-176.23" style="fill:#b8799b;fill-opacity:1;fill-rule:nonzero;stroke:none" id="path402"></path><path d="m 1533.49,1349.28 c -0.11,0.41 -0.02,1.07 0.25,1.95 l 213.78,24.08 -160.9,-20.05 -50.07,-5.64 -3.06,-0.34 m -157.75,685.45 -1.13,0.69 1.04,0.12 0.09,-0.81 m -5.41,3.34 v 0 c 0,0.03 0,0.07 -0.01,0.1 l 0.02,-0.11 m 1093.18,119.21 -0.09,0.84 c 0.43,0.06 0.85,0.16 1.25,0.31 l -1.16,-1.15" style="fill:#253460;fill-opacity:1;fill-rule:nonzero;stroke:none" id="path404"></path><path d="m 1372,2040.17 452.39,447.39 c 26.97,26.75 68.76,31.52 101.07,11.54 l 537.71,-333.95 c 0.91,-0.57 0.6,-1.98 -0.48,-2.1 l -1092.57,-123.1 1.88,0.22" style="fill:#f795b4;fill-opacity:1;fill-rule:nonzero;stroke:none" id="path406"></path><path d="m 1882.2,2506.45 c -19.79,0 -39.38,-7.65 -54.29,-22.45 l -442.14,-437.25 1065.31,120.02 -528.25,328.08 c -12.6,7.79 -26.67,11.6 -40.63,11.6 m -511.52,-471.47 -0.83,7.36 -1.36,1.38 1.09,1.08 -0.02,0.12 0.16,0.02 451.15,446.17 c 28.72,28.48 72.82,33.52 107.22,12.24 l 537.72,-333.96 c 2.21,-1.36 3.31,-4 2.75,-6.54 -0.57,-2.55 -2.69,-4.46 -5.27,-4.76 L 1370.68,2034.98" style="fill:#253460;fill-opacity:1;fill-rule:nonzero;stroke:none" id="path408"></path><path d="m 1370.12,2039.95 v 0 0 m 15.65,6.8 139.9,138.35 13.64,-121.05 -153.54,-17.3 m 881.1,99.26 -16.37,145.33 200.58,-124.57 -184.21,-20.76 m -518.33,259.5 79.37,78.49 c 14.91,14.8 34.5,22.45 54.29,22.45 13.96,0 28.03,-3.81 40.63,-11.6 l 94.99,-59 -269.28,-30.34" style="fill:#b8799b;fill-opacity:1;fill-rule:nonzero;stroke:none" id="path410"></path><path d="m 1370.12,2039.95 v 0 l 1.88,0.22 152.95,151.26 0.72,-6.33 -139.9,-138.35 153.54,17.3 0.56,-4.97 -169.75,-19.13 m 897.31,101.1 -0.56,4.96 184.21,20.76 -200.58,124.57 -0.71,6.33 213.38,-132.52 c 0.91,-0.57 0.6,-1.98 -0.48,-2.1 l -195.26,-22 m -526.92,263.56 83.88,82.95 c 15.82,15.69 36.76,23.82 57.88,23.82 14.88,0 29.84,-4.02 43.19,-12.28 l 100.38,-62.35 -8.02,-0.9 -94.99,59 c -12.6,7.79 -26.67,11.6 -40.63,11.6 -19.79,0 -39.38,-7.65 -54.29,-22.45 l -79.37,-78.49 -8.03,-0.9" style="fill:#253460;fill-opacity:1;fill-rule:nonzero;stroke:none" id="path412"></path><path d="m 1874.41,1829.45 -340.06,-473.12 928.25,104.58 -436.81,385.6 c -45.57,40.23 -115.91,32.3 -151.38,-17.06" style="fill:#f795b4;fill-opacity:1;fill-rule:nonzero;stroke:none" id="path414"></path><path d="m 1957.77,1867.22 c -3.62,0 -7.26,-0.2 -10.89,-0.61 -27.39,-3.08 -52.32,-17.69 -68.41,-40.08 l -333.48,-463.97 905.85,102.06 -428.36,378.14 c -17.92,15.82 -41.03,24.46 -64.71,24.46 m -434.05,-517.12 346.63,482.27 4.06,-2.92 -4.06,2.92 c 17.73,24.67 45.22,40.78 75.41,44.17 30.19,3.4 60.56,-6.18 83.34,-26.28 l 445.25,-393.06 -950.63,-107.1" style="fill:#253460;fill-opacity:1;fill-rule:nonzero;stroke:none" id="path416"></path><path d="m 1427.23,2364.28 715,80.55 c 46.87,5.29 88.58,-23.41 93.17,-64.1 l 45.95,-407.87 -198.83,-182.75 -262.74,-29.61 -259.53,162.32 -44.52,395.17 -88.5,46.29" style="fill:#ffffff;fill-opacity:1;fill-rule:nonzero;stroke:none" id="path418"></path><path d="m 1564.95,1925.78 256,-160.11 259.38,29.22 195.76,179.93 -45.67,405.36 c -2.05,18.21 -12.2,34.45 -28.58,45.72 -16.61,11.42 -37.57,16.37 -59.05,13.96 l -698.77,-78.73 76.38,-39.94 44.55,-395.41 m 253.65,-170.45 -263.05,164.53 -44.49,394.92 -68.09,56.3 698.7,78.72 c 23.87,2.68 47.25,-2.87 65.84,-15.66 18.8,-12.94 30.47,-31.71 32.86,-52.85 l 46.23,-410.39 -201.9,-185.58 -266.1,-29.99" style="fill:#253460;fill-opacity:1;fill-rule:nonzero;stroke:none" id="path420"></path><path d="m 1605.7,1464.16 198.58,300.13 11.82,-7.39 -210.4,-292.74" style="fill:#b8799b;fill-opacity:1;fill-rule:nonzero;stroke:none" id="path422"></path><path d="m 2371.9,1549.45 c -14.53,12.34 -30.1,25.46 -46.18,38.95 l -230.97,203.9 14.09,13.95 263.06,-256.8" style="fill:#b8799b;fill-opacity:1;fill-rule:nonzero;stroke:none" id="path424"></path><path d="m 2391.29,1530.53 -65.57,57.87 c 16.08,-13.49 31.65,-26.61 46.18,-38.95 l 19.39,-18.92 m -296.54,261.77 -1.25,1.11 14.68,13.49 0.66,-0.65 -14.09,-13.95" style="fill:#89658b;fill-opacity:1;fill-rule:nonzero;stroke:none" id="path426"></path><path d="m 1820.95,1765.67 -11.15,6.97 64.61,97.64 c 20.2,28.1 51.69,42.77 83.48,42.77 24.05,0 48.27,-8.39 67.9,-25.72 l 75.22,-73.43 -15.05,-13.83 -56.86,50.19 c -19.76,17.44 -45.23,26.96 -71.34,26.96 -3.99,0 -8,-0.23 -12,-0.68 -30.19,-3.39 -57.68,-19.5 -75.41,-44.17 v 0 l -47.82,-66.53 -1.58,-0.17" style="fill:#c0c4d1;fill-opacity:1;fill-rule:nonzero;stroke:none" id="path428"></path><path d="m 1816.1,1756.9 v 0 l -11.82,7.39 5.52,8.35 11.15,-6.97 1.58,0.17 -6.43,-8.94 m 277.4,36.51 -7.54,6.66 15.05,13.83 7.17,-7 -14.68,-13.49" style="fill:#253460;fill-opacity:1;fill-rule:nonzero;stroke:none" id="path430"></path><path d="m 1874.41,1829.45 -340.06,-473.12 928.25,104.58 -436.81,385.6 c -45.57,40.23 -115.91,32.3 -151.38,-17.06" style="fill:#f795b4;fill-opacity:1;fill-rule:nonzero;stroke:none" id="path432"></path><path d="m 1957.77,1867.22 c -3.62,0 -7.26,-0.2 -10.89,-0.61 -27.39,-3.08 -52.32,-17.69 -68.41,-40.08 l -333.48,-463.97 905.85,102.06 -428.36,378.14 c -17.92,15.82 -41.03,24.46 -64.71,24.46 m -434.05,-517.12 346.63,482.27 4.06,-2.92 -4.06,2.92 c 17.73,24.67 45.22,40.78 75.41,44.17 30.19,3.4 60.56,-6.18 83.34,-26.28 l 445.25,-393.06 -950.63,-107.1" style="fill:#253460;fill-opacity:1;fill-rule:nonzero;stroke:none" id="path434"></path><path d="m 1657.63,1377.28 249.73,347.46 c 14.84,20.64 37.97,31.41 61.32,31.41 17.66,0 35.44,-6.16 49.85,-18.88 l 320.8,-283.19 -681.7,-76.8" style="fill:#f5b8cd;fill-opacity:1;fill-rule:nonzero;stroke:none" id="path436"></path><path d="M 1372.41,2039.27 1819.78,1760.5" style="fill:#f795b4;fill-opacity:1;fill-rule:nonzero;stroke:none" id="path438"></path><path d="m 1817.13,1756.25 -447.37,278.77 5.29,8.5 447.37,-278.77 -5.29,-8.5" style="fill:#253460;fill-opacity:1;fill-rule:nonzero;stroke:none" id="path440"></path><path d="M 2467.94,2162.71 2093.81,1791.38" style="fill:#f795b4;fill-opacity:1;fill-rule:nonzero;stroke:none" id="path442"></path><path d="m 2097.33,1787.83 -7.04,7.09 374.13,371.33 7.04,-7.09 -374.13,-371.33" style="fill:#253460;fill-opacity:1;fill-rule:nonzero;stroke:none" id="path444"></path><path d="m 1535.53,2135.88 -124.79,-14.06 -20.05,178.03 c -3.71,32.89 19.95,62.56 52.84,66.26 l 5.67,0.64 c 32.89,3.71 62.56,-19.95 66.27,-52.84 l 20.06,-178.03" style="fill:#f0f5fa;fill-opacity:1;fill-rule:nonzero;stroke:none" id="path446"></path><path d="m 1456.03,2362.13 c -2.08,0 -4.17,-0.12 -6.26,-0.35 l -5.68,-0.64 c -14.58,-1.64 -27.65,-8.85 -36.8,-20.33 -9.14,-11.46 -13.28,-25.82 -11.63,-40.4 l 19.49,-173.07 114.85,12.94 -19.5,173.07 c -1.64,14.58 -8.86,27.65 -20.34,36.8 -9.82,7.83 -21.75,11.98 -34.13,11.98 z m -49.7,-245.84 -20.61,183.01 c -1.94,17.23 2.94,34.19 13.76,47.75 10.81,13.56 26.26,22.09 43.49,24.03 l 5.68,0.64 c 17.25,1.89 34.19,-2.94 47.75,-13.76 13.56,-10.81 22.1,-26.26 24.04,-43.5 l 20.61,-182.99 -134.72,-15.18" style="fill:#253460;fill-opacity:1;fill-rule:nonzero;stroke:none" id="path448"></path><path d="m 1620.25,2228.56 c -2.51,0 -4.67,1.89 -4.96,4.45 -0.31,2.74 1.66,5.21 4.41,5.53 l 518.05,58.36 c 2.78,0.34 5.22,-1.66 5.53,-4.41 0.31,-2.74 -1.66,-5.21 -4.41,-5.53 l -518.05,-58.37 -0.57,-0.03" style="fill:#253460;fill-opacity:1;fill-rule:nonzero;stroke:none" id="path450"></path><path d="m 1640.1,2052.45 c -2.51,0 -4.68,1.89 -4.97,4.44 -0.31,2.75 1.67,5.22 4.41,5.53 l 518.05,58.36 c 2.72,0.33 5.22,-1.66 5.53,-4.41 0.31,-2.75 -1.66,-5.22 -4.41,-5.53 l -518.05,-58.36 -0.56,-0.03" style="fill:#253460;fill-opacity:1;fill-rule:nonzero;stroke:none" id="path452"></path><path d="m 1630.06,2141.52 c -2.51,0 -4.68,1.89 -4.97,4.45 -0.3,2.74 1.67,5.21 4.41,5.52 l 223.87,25.23 c 2.73,0.28 5.22,-1.67 5.53,-4.42 0.31,-2.74 -1.66,-5.21 -4.41,-5.52 l -223.86,-25.23 -0.57,-0.03" style="fill:#253460;fill-opacity:1;fill-rule:nonzero;stroke:none" id="path454"></path><path d="m 1912.54,2173.36 c -2.51,0 -4.68,1.88 -4.97,4.44 -0.3,2.75 1.67,5.22 4.41,5.53 l 235.57,26.53 c 2.76,0.27 5.22,-1.66 5.54,-4.41 0.3,-2.74 -1.67,-5.22 -4.41,-5.53 l -235.57,-26.53 -0.57,-0.03" style="fill:#253460;fill-opacity:1;fill-rule:nonzero;stroke:none" id="path456"></path></g><path d="m 1651.35,1952.58 c -2.51,0 -4.68,1.88 -4.97,4.44 -0.31,2.75 1.67,5.22 4.41,5.53 l 223.87,25.22 c 2.72,0.28 5.22,-1.67 5.53,-4.41 0.31,-2.74 -1.66,-5.22 -4.41,-5.53 l -223.87,-25.22 -0.56,-0.03" style="fill:#253460;fill-opacity:1;fill-rule:nonzero;stroke:none" id="path458"></path></g></g></svg>