<svg xmlns="http://www.w3.org/2000/svg" id="Layer_1" height="512" viewBox="0 0 510 510" width="512"><g id="XMLID_4634_"><path id="XMLID_4671_" d="m0 372.049c0 74.438 60.559 135 135 135l15-135-15-135c-74.437 0-135 60.558-135 135z" fill="#8493fb"></path><path id="XMLID_4650_" d="m180 356.803h82.5l7.5-97.5-7.5-97.5c-9.975 0-72.459 0-82.5 0z" fill="#8493fb"></path><path id="XMLID_4649_" d="m262.5 356.803h82.5l15-120-15-120c-9.975 0-72.459 0-82.5 0z" fill="#c21456"></path><path id="XMLID_4636_" d="m345 356.803h82.5l7.5-142.5-7.5-142.5c-9.975 0-72.459 0-82.5 0z" fill="#00cb76"></path><path id="XMLID_4655_" d="m135 237.049v270c74.439 0 135-60.56 135-135s-60.561-135-135-135z" fill="#6666fa"></path><path id="XMLID_4535_" d="m427.5 26.803h82.5v330h-82.5z" fill="#ecbd2c"></path><path id="XMLID_4668_" d="m30 372.049c0 27.289 10.53 53.156 29.317 72.705l90.683-72.705-15-105c-57.895 0-105 47.101-105 105z" fill="#f9f9f9"></path><path id="XMLID_4656_" d="m135 267.049v119.754l75.683 57.951c18.145-18.881 29.317-44.512 29.317-72.705 0-57.897-47.103-105-105-105z" fill="#e2dff4"></path><path id="XMLID_4667_" d="m59.317 444.754c19.761 20.563 46.882 32.295 75.683 32.295l15-41.454-15-41.454c-33.621 0-63.181 20.492-75.683 50.613z" fill="#bfe85f"></path><path id="XMLID_4657_" d="m135 394.141v82.908c29.704 0 56.564-12.4 75.683-32.295-12.32-29.681-41.598-50.613-75.683-50.613z" fill="#00cb76"></path><path id="XMLID_4659_" d="m94.842 407.479c10.289 10.288 24.493 16.661 40.158 16.661l15-56.818-15-56.818c-15.665 0-29.869 6.373-40.158 16.66-22.209 22.21-22.223 58.092 0 80.315z" fill="#edbba7"></path><path id="XMLID_4654_" d="m135 310.504v113.637c31.33 0 56.818-25.488 56.818-56.818 0-31.331-25.488-56.819-56.818-56.819z" fill="#e8a38b"></path><path id="XMLID_4665_" d="m92.574 55.983c-18.606 18.607-57.701 57.703-68.664 68.664l21.213 21.213c12.857-12.856 39.874-39.874 47.451-47.45 5.133 5.133 37.259 37.26 42.426 42.426l15-21.213-15-21.213c-5.133-5.133-37.259-37.26-42.426-42.427z" fill="#dd4e4e"></path><path id="XMLID_4663_" d="m230.459 2.951-95.459 95.459v42.426l116.672-116.672z" fill="#c21456"></path></g></svg>