<svg xmlns:dc="http://purl.org/dc/elements/1.1/" xmlns:cc="http://creativecommons.org/ns#" xmlns:rdf="http://www.w3.org/1999/02/22-rdf-syntax-ns#" xmlns:svg="http://www.w3.org/2000/svg" xmlns="http://www.w3.org/2000/svg" xmlns:sodipodi="http://sodipodi.sourceforge.net/DTD/sodipodi-0.dtd" xmlns:inkscape="http://www.inkscape.org/namespaces/inkscape" width="100%" height="100%" viewBox="0 0 336 236" version="1.1" xml:space="preserve" style="fill-rule:evenodd;clip-rule:evenodd;stroke-miterlimit:10;" id="svg1078" sodipodi:docname="home-hero.svg" inkscape:version="1.0.1 (c497b03c, 2020-09-10)"><metadata id="metadata1084"><rdf:rdf><cc:work rdf:about=""><dc:format>image/svg+xml</dc:format><dc:type rdf:resource="http://purl.org/dc/dcmitype/StillImage"></dc:type><dc:title></dc:title></cc:work></rdf:rdf></metadata><defs id="defs1082"></defs><sodipodi:namedview pagecolor="#ffffff" bordercolor="#666666" borderopacity="1" objecttolerance="10" gridtolerance="10" guidetolerance="10" inkscape:pageopacity="0" inkscape:pageshadow="2" inkscape:window-width="1440" inkscape:window-height="855" id="namedview1080" showgrid="false" inkscape:zoom="3.4270712" inkscape:cx="161.68275" inkscape:cy="136.38179" inkscape:window-x="0" inkscape:window-y="23" inkscape:window-maximized="1" inkscape:current-layer="g1467"></sodipodi:namedview><g id="bg"><g id="g1467"><path d="M105.14,76.488l126.988,0c4.262,0 7.744,3.482 7.744,7.736l0,85.604l-142.476,0l0,-85.603c0,-4.254 3.483,-7.737 7.744,-7.737Z" style="fill:rgb(236,236,236);" id="path833"></path><path d="M105.14,78.879l126.988,0c2.945,0 5.354,2.413 5.354,5.346l0,83.215l-137.694,0l0,-83.215c0,-2.933 2.404,-5.346 5.352,-5.346Z" style="fill:rgb(26,62,82);" id="path835"></path><rect x="104.676" y="83.408" width="127.911" height="79.256" style="fill:#36f2b9;stroke:black;stroke-width:2px;fill-opacity:1" id="rect837"></rect><path d="M87.464,165.176l162.33,-0c1.549,-0 2.812,1.43 2.812,3.111l0,3.564c0,1.672 -1.305,3.117 -2.812,3.117l-162.33,-0c-1.507,-0 -2.815,-1.412 -2.815,-3.117l0,-3.564c0,-1.703 1.278,-3.111 2.815,-3.111Z" style="fill:white;stroke:black;stroke-width:2px;" id="path839"></path><path d="M155.345,165.598l26.566,0c0.254,0 0.461,0.537 0.461,1.17l0,1.34c0,0.627 -0.213,1.172 -0.461,1.172l-26.566,0c-0.247,0 -0.461,-0.531 -0.461,-1.172l0,-1.34c0,-0.639 0.209,-1.17 0.461,-1.17Z" style="fill:white;stroke:black;stroke-width:2px;" id="path841"></path><circle cx="73.835" cy="49.21" r="21.654" style="fill:#36f2b9;stroke:black;stroke-width:2px;fill-opacity:1" id="circle843"></circle><circle cx="264.558" cy="49.21" style="fill:#36f2b9;stroke:black;stroke-width:2px;fill-opacity:1" id="circle845" r="21.654"></circle><circle cx="289.317" cy="117.277" r="21.654" style="fill:#36f2b9;stroke:black;stroke-width:2px;fill-opacity:1" id="circle847"></circle><circle cx="288.423" cy="180.609" r="21.654" style="fill:#36f2b9;stroke:black;stroke-width:2px;fill-opacity:1" id="circle849"></circle><circle cx="48.998" cy="117.277" r="21.654" style="fill:#36f2b9;stroke:black;stroke-width:2px;fill-opacity:1" id="circle851"></circle><circle cx="49.893" cy="180.609" r="21.654" style="fill:#36f2b9;stroke:black;stroke-width:2px;fill-opacity:1" id="circle853"></circle><circle cx="169.196" cy="35.443" r="21.655" style="fill:#36f2b9;stroke:black;stroke-width:2px;fill-opacity:1" id="circle855"></circle><path d="M190.851,35.451l15.334,0c0,0 6.381,-0.521 6.381,6.38l0,35.697" style="fill:none;fill-rule:nonzero;stroke:rgb(14,60,84);stroke-width:2px;stroke-dasharray:2,2;" id="path857"></path><path d="M251.532,104.503l0,5.334c0,0 0.521,6.379 -6.381,6.379l-6.498,0" style="fill:none;fill-rule:nonzero;stroke:rgb(14,60,84);stroke-width:2px;stroke-dasharray:2,2;" id="path859"></path><path d="M286.202,138.863l0,5.334c0,0 0.521,6.379 -6.379,6.379l-41.951,0" style="fill:none;fill-rule:nonzero;stroke:rgb(14,60,84);stroke-width:2px;stroke-dasharray:2,2;" id="path861"></path><path d="M277.437,67.23l0,17.999c0,0 0.521,6.38 -6.381,6.38l-6.498,0l0,-0.318l-6.5,0c-6.902,0 -6.379,6.38 -6.379,6.38l0,5.334" style="fill:none;fill-rule:nonzero;stroke:rgb(14,60,84);stroke-width:2px;stroke-dasharray:2,2;" id="path863"></path><path d="m 274.099,196.404 v 1" style="fill:none;fill-rule:nonzero;stroke:#0e3c54;stroke-width:2px" id="path865"></path><path d="m 274.099,199.232 v 2.506 c 0,0 0.521,6.381 -6.381,6.381 h -4.584" style="fill:none;fill-rule:nonzero;stroke:#0e3c54;stroke-width:2px;stroke-dasharray:1.83, 1.83" id="path867"></path><path d="m 262.22,208.119 h -1 l 0.834,-0.01 h -1" style="fill:none;fill-rule:nonzero;stroke:#0e3c54;stroke-width:2px" id="path869"></path><path d="m 258.997,208.109 h -2.277 c 0,0 -6.381,0.521 -6.381,-6.379 v -2.367 l 0.027,-0.914 v -6.5 c 0,-6.9 -6.379,-6.379 -6.379,-6.379 h -5.334 l -1.258,-0.018 h -5.334 c 0,0 -6.381,0.521 -6.381,-6.381 v -1.75" style="fill:none;fill-rule:nonzero;stroke:#0e3c54;stroke-width:2px;stroke-dasharray:2.06, 2.06" id="path871"></path><path d="m 225.681,176.393 v -1" style="fill:none;fill-rule:nonzero;stroke:#0e3c54;stroke-width:2px" id="path873"></path><path d="M85.159,104.503l0,5.334c0,0 -0.521,6.379 6.38,6.379l6.499,0" style="fill:none;fill-rule:nonzero;stroke:rgb(14,60,84);stroke-width:2px;stroke-dasharray:2,2;" id="path879"></path><path d="M50.488,138.863l0,5.334c0,0 -0.521,6.379 6.38,6.379l41.95,0" style="fill:none;fill-rule:nonzero;stroke:rgb(14,60,84);stroke-width:2px;stroke-dasharray:2,2;" id="path881"></path><path d="M59.255,67.23l0,17.999c0,0 -0.521,6.38 6.38,6.38l6.499,0l0,-0.318l6.499,0c6.902,0 6.38,6.38 6.38,6.38l0,5.334" style="fill:none;fill-rule:nonzero;stroke:rgb(14,60,84);stroke-width:2px;stroke-dasharray:2,2;" id="path883"></path><path d="m 62.592,198.684 v 1" style="fill:none;fill-rule:nonzero;stroke:#0e3c54;stroke-width:2px" id="path885"></path><path d="m 62.592,201.664 v 0.074 c 0,0 -0.521,6.381 6.38,6.381 h 4.508" style="fill:none;fill-rule:nonzero;stroke:#0e3c54;stroke-width:2px;stroke-dasharray:1.98, 1.98" id="path887"></path><path d="m 74.471,208.119 h 1 l -0.834,-0.01 h 1" style="fill:none;fill-rule:nonzero;stroke:#0e3c54;stroke-width:2px" id="path889"></path><path d="m 77.694,208.109 h 2.277 c 0,0 6.38,0.521 6.38,-6.379 v -2.367 l -0.027,-0.914 v -6.5 c 0,-6.9 6.38,-6.379 6.38,-6.379 h 5.334 l 1.257,-0.018 h 5.334 c 0,0 6.38,0.521 6.38,-6.381 v -1.75" style="fill:none;fill-rule:nonzero;stroke:#0e3c54;stroke-width:2px;stroke-dasharray:2.06, 2.06" id="path891"></path><path d="m 111.009,176.393 v -1" style="fill:none;fill-rule:nonzero;stroke:#0e3c54;stroke-width:2px" id="path893"></path><path d="M108.291,56.481c0,1.312 -1.062,2.375 -2.376,2.375l-38.044,0l0,-32.097c0,-1.315 1.065,-2.378 2.376,-2.378l10.999,0c0.628,0 1.234,0.251 1.68,0.697l3.362,3.362c0.446,0.443 1.049,0.696 1.68,0.696l17.948,0c1.313,0 2.376,1.063 2.376,2.378l0,24.967l-0.001,0Z" style="fill:white;fill-rule:nonzero;stroke:rgb(29,29,27);stroke-width:2px;stroke-linecap:round;stroke-linejoin:round;" id="path899"></path><path d="M108.75,58.122c-0.366,0.9 -1.254,1.492 -2.246,1.492l-39.508,0l9.074,-22.279c0.362,-0.904 1.255,-1.496 2.247,-1.496l35.932,0c0.805,0 1.553,0.391 2.002,1.043c0.453,0.654 0.543,1.485 0.246,2.219l-7.747,19.021Z" style="fill:white;fill-rule:nonzero;stroke:rgb(29,29,27);stroke-width:2px;stroke-linecap:round;stroke-linejoin:round;" id="path901"></path><path d="M22.904,26.659l21.193,0" style="fill:none;fill-rule:nonzero;stroke:rgb(61,52,55);stroke-width:2px;" id="path903"></path><path d="M37.166,22.104l13.863,0" style="fill:none;fill-rule:nonzero;stroke:rgb(61,52,55);stroke-width:2px;" id="path905"></path><path d="M222.974,21.528l13.386,0" style="fill:none;fill-rule:nonzero;stroke:rgb(61,52,55);stroke-width:2px;" id="path907"></path><path d="M298.526,75.692l13.387,-0" style="fill:none;fill-rule:nonzero;stroke:rgb(61,52,55);stroke-width:2px;" id="path909"></path><path d="M231.983,16.973l8.756,0" style="fill:none;fill-rule:nonzero;stroke:rgb(61,52,55);stroke-width:2px;" id="path911"></path><path d="M245.694,137.561l13.387,0" style="fill:none;fill-rule:nonzero;stroke:rgb(61,52,55);stroke-width:2px;" id="path913"></path><path d="M254.702,133.004l8.758,0" style="fill:none;fill-rule:nonzero;stroke:rgb(61,52,55);stroke-width:2px;" id="path915"></path><path d="M125.737,70.863l15.309,0" style="fill:none;fill-rule:nonzero;stroke:rgb(61,52,55);stroke-width:2px;" id="path917"></path><path d="M289.909,68.992l15.309,0" style="fill:none;fill-rule:nonzero;stroke:rgb(61,52,55);stroke-width:2px;" id="path919"></path><path d="M27.897,65.928l15.309,0" style="fill:none;fill-rule:nonzero;stroke:rgb(61,52,55);stroke-width:2px;" id="path921"></path><path d="M145.899,183.865l15.309,0" style="fill:none;fill-rule:nonzero;stroke:rgb(61,52,55);stroke-width:2px;" id="path923"></path><path d="M171.585,183.867l39.473,0" style="fill:none;fill-rule:nonzero;stroke:rgb(61,52,55);stroke-width:2px;" id="path925"></path><path d="M103.318,16.326l30.074,0" style="fill:none;fill-rule:nonzero;stroke:rgb(61,52,55);stroke-width:2px;" id="path927"></path><circle cx="168.629" cy="121.189" r="26.465" style="fill:none;stroke:rgb(29,29,27);stroke-width:2px;" id="circle929"></circle><path d="m 305.903,22.93 v 3.319" style="fill:none;fill-rule:nonzero;stroke:#0e3c54;stroke-width:2px" id="path937"></path><path d="m 300.968,27.576 h 3.318" style="fill:none;fill-rule:nonzero;stroke:#0e3c54;stroke-width:2px" id="path939"></path><path d="M 305.903,32.382 V 29.063" style="fill:none;fill-rule:nonzero;stroke:#0e3c54;stroke-width:2px" id="path941"></path><path d="m 310.841,27.735 h -3.319" style="fill:none;fill-rule:nonzero;stroke:#0e3c54;stroke-width:2px" id="path943"></path><path d="m 29.997,42.443 v 3.32" style="fill:none;fill-rule:nonzero;stroke:#0e3c54;stroke-width:2px" id="path947"></path><path d="m 25.06,47.09 h 3.319" style="fill:none;fill-rule:nonzero;stroke:#0e3c54;stroke-width:2px" id="path949"></path><path d="M 29.997,51.896 V 48.577" style="fill:none;fill-rule:nonzero;stroke:#0e3c54;stroke-width:2px" id="path951"></path><path d="m 34.934,47.249 h -3.32" style="fill:none;fill-rule:nonzero;stroke:#0e3c54;stroke-width:2px" id="path953"></path><path d="m 126.699,97.176 v 3.319" style="fill:none;fill-rule:nonzero;stroke:#0e3c54;stroke-width:2px" id="path957"></path><path d="m 121.762,101.822 h 3.32" style="fill:none;fill-rule:nonzero;stroke:#0e3c54;stroke-width:2px" id="path959"></path><path d="M 126.699,106.628 V 103.31" style="fill:none;fill-rule:nonzero;stroke:#0e3c54;stroke-width:2px" id="path961"></path><path d="m 131.636,101.981 h -3.319" style="fill:none;fill-rule:nonzero;stroke:#0e3c54;stroke-width:2px" id="path963"></path><path d="m 213.823,136.756 v 3.32" style="fill:none;fill-rule:nonzero;stroke:#0e3c54;stroke-width:2px" id="path967"></path><path d="m 208.886,141.402 h 3.32" style="fill:none;fill-rule:nonzero;stroke:#0e3c54;stroke-width:2px" id="path969"></path><path d="m 213.823,146.209 v -3.318" style="fill:none;fill-rule:nonzero;stroke:#0e3c54;stroke-width:2px" id="path971"></path><path d="M 218.761,141.562 H 215.44" style="fill:none;fill-rule:nonzero;stroke:#0e3c54;stroke-width:2px" id="path973"></path><g id="cogGroup"><path id="cog" d="m 291.315,39.623 -3.059,-0.303 c -0.709,-0.071 -1.399,-0.7 -1.532,-1.397 l -1.343,-4.454 c -0.274,-0.654 -0.051,-1.56 0.497,-2.009 l 2.376,-1.945 c 0.547,-0.456 0.627,-1.269 0.18,-1.82 l -2.24,-2.731 c -0.453,-0.553 -1.275,-0.633 -1.823,-0.181 l -2.375,1.947 c -0.548,0.449 -1.477,0.498 -2.065,0.093 l -4.107,-2.183 c -0.657,-0.268 -1.139,-1.072 -1.069,-1.778 l 0.304,-3.065 c 0.07,-0.708 -0.454,-1.339 -1.158,-1.409 l -3.514,-0.347 c -0.712,-0.071 -1.344,0.447 -1.414,1.155 l -0.304,3.064 c -0.069,0.706 -0.701,1.399 -1.401,1.534 l -4.451,1.337 c -0.652,0.282 -1.559,0.053 -2.008,-0.493 l -1.951,-2.376 c -0.449,-0.552 -1.264,-0.632 -1.815,-0.179 l -2.733,2.24 c -0.547,0.454 -0.628,1.265 -0.18,1.819 l 1.952,2.373 c 0.448,0.549 0.483,1.481 0.082,2.068 l -2.182,4.106 c -0.267,0.658 -1.066,1.141 -1.778,1.069 l -3.059,-0.303 c -0.704,-0.069 -1.339,0.459 -1.409,1.168 l -0.347,3.508 c -0.07,0.707 0.45,1.349 1.154,1.418 l 3.059,0.302 c 0.712,0.071 1.401,0.694 1.533,1.396 l 1.338,4.454 c 0.282,0.654 0.061,1.558 -0.487,2.005 l -2.379,1.949 c -0.545,0.449 -0.627,1.27 -0.181,1.823 l 2.244,2.732 c 0.452,0.548 1.267,0.629 1.815,0.18 l 2.377,-1.952 c 0.548,-0.449 1.481,-0.496 2.07,-0.09 l 4.099,2.184 c 0.66,0.266 1.147,1.065 1.076,1.774 l -0.303,3.063 c -0.071,0.704 0.447,1.343 1.159,1.413 l 3.514,0.347 c 0.704,0.07 1.344,-0.455 1.413,-1.159 l 0.303,-3.062 c 0.071,-0.709 0.697,-1.398 1.395,-1.53 l 4.456,-1.339 c 0.65,-0.283 1.557,-0.055 2.006,0.492 L 281,58.91 c 0.448,0.55 1.271,0.63 1.821,0.18 l 2.732,-2.241 c 0.547,-0.456 0.629,-1.275 0.18,-1.822 l -1.954,-2.378 c -0.449,-0.546 -0.485,-1.478 -0.09,-2.062 l 2.188,-4.105 c 0.268,-0.662 1.067,-1.139 1.777,-1.068 l 3.059,0.303 c 0.704,0.069 1.344,-0.456 1.415,-1.164 l 0.346,-3.507 c 0.069,-0.712 -0.455,-1.354 -1.159,-1.423 z m -21.934,6.508 c -3.065,-0.304 -5.297,-3.035 -4.994,-6.098 0.303,-3.063 3.026,-5.301 6.091,-4.998 3.069,0.304 5.306,3.032 5.003,6.095 -0.304,3.064 -3.031,5.305 -6.1,5.001 z" style="fill:#ffffff;fill-rule:nonzero;stroke:#1d1d1b;stroke-width:2px;stroke-linecap:round;stroke-linejoin:round"></path></g><path d="M24.145,125.994l0,-34.926c0,-2.744 2.245,-4.99 4.99,-4.99l19.963,0c2.745,0 4.99,2.246 4.99,4.99l0,34.926c0,2.744 -2.245,4.99 -4.99,4.99l-19.963,0c-2.745,0 -4.99,-2.246 -4.99,-4.99Z" style="fill:white;fill-rule:nonzero;stroke:rgb(29,29,27);stroke-width:2px;stroke-linecap:round;stroke-linejoin:round;" id="path979"></path><path d="M49.098,89.821l-19.963,0c-0.749,0 -1.247,0.5 -1.247,1.247l0,31.184c0,0.746 0.499,1.246 1.247,1.246l19.963,0c0.749,0 1.247,-0.5 1.247,-1.246l0,-31.184c-0.001,-0.747 -0.499,-1.247 -1.247,-1.247Z" style="fill:white;fill-rule:nonzero;stroke:rgb(29,29,27);stroke-width:2px;stroke-linecap:round;stroke-linejoin:round;" id="path981"></path><circle cx="39.116" cy="127.242" r="1.871" style="fill:white;stroke:rgb(29,29,27);stroke-width:2px;stroke-linecap:round;stroke-linejoin:round;" id="circle983"></circle><path d="M184.204,58.585c0,1.275 -1.035,2.311 -2.311,2.311l-38.235,0c-1.275,0 -2.311,-1.035 -2.311,-2.311l0,-24.709c0,-1.275 1.035,-2.311 2.311,-2.311l38.235,-0c1.275,-0 2.311,1.035 2.311,2.311l0,24.709Z" style="fill:white;fill-rule:nonzero;stroke:rgb(29,29,27);stroke-width:2px;" id="path985"></path><circle cx="147.319" cy="37.004" r="1.996" style="fill:white;stroke:rgb(29,29,27);stroke-width:2px;" id="circle987"></circle><path d="M171.997,30.938c0,0.347 -0.349,0.627 -0.779,0.627l-16.884,-0c-0.431,-0 -0.78,-0.28 -0.78,-0.627l0,-5.491c0,-0.347 0.349,-0.627 0.78,-0.627l16.884,-0c0.431,-0 0.779,0.28 0.779,0.627l0,5.491Z" style="fill:white;fill-rule:nonzero;stroke:rgb(29,29,27);stroke-width:2px;" id="path989"></path><path d="M180.924,31.093c0,0.153 -0.169,0.276 -0.378,0.276l-8.171,0c-0.208,0 -0.378,-0.123 -0.378,-0.276l0,-2.427c0,-0.154 0.17,-0.276 0.378,-0.276l8.171,0c0.209,0 0.378,0.122 0.378,0.276l0,2.427Z" style="fill:white;fill-rule:nonzero;stroke:rgb(29,29,27);stroke-width:2px;" id="path991"></path><circle cx="162.775" cy="46.23" r="11.275" style="fill:white;stroke:rgb(29,29,27);stroke-width:2px;" id="circle993"></circle><path d="m 316.167,101.902 h -32.668 v 24.502 c 0,2.244 1.84,4.082 4.084,4.082 h 24.5 c 2.246,0 4.084,-1.838 4.084,-4.082 z" style="fill:#ffffff;fill-rule:nonzero;stroke:#1d1d1b;stroke-width:2px;stroke-linecap:round;stroke-linejoin:round" id="path995"></path><path d="m 312.083,89.653 h -24.5 c -2.244,0 -4.084,1.837 -4.084,4.082 v 9.189 h 32.668 v -9.189 c 0,-2.245 -1.838,-4.082 -4.084,-4.082 z" style="fill:#ffffff;fill-rule:nonzero;stroke:#1d1d1b;stroke-width:2px;stroke-linecap:round;stroke-linejoin:round" id="path997"></path><path d="m 312.083,99.861 h -24.5 c -0.611,0 -1.02,-0.408 -1.02,-1.021 v -5.105 c 0,-0.611 0.408,-1.021 1.02,-1.021 h 24.5 c 0.613,0 1.021,0.409 1.021,1.021 v 5.105 c 0,0.613 -0.408,1.021 -1.021,1.021 z" style="fill:#ffffff;fill-rule:nonzero;stroke:#1d1d1b;stroke-width:2px;stroke-linecap:round;stroke-linejoin:round" id="path999"></path><path d="m 292.089,111.404 h -4.145 c -0.828,0 -1.381,-0.523 -1.381,-1.306 v -2.61 c 0,-0.782 0.553,-1.308 1.381,-1.308 h 4.145 c 0.828,0 1.383,0.525 1.383,1.308 v 2.61 c 0,0.783 -0.555,1.306 -1.383,1.306 z" style="fill:#ffffff;fill-rule:nonzero;stroke:#1d1d1b;stroke-width:2px;stroke-linecap:round;stroke-linejoin:round" id="path1001"></path><path d="m 301.759,111.404 h -4.143 c -0.83,0 -1.383,-0.523 -1.383,-1.306 v -2.61 c 0,-0.782 0.553,-1.308 1.383,-1.308 h 4.143 c 0.83,0 1.383,0.525 1.383,1.308 v 2.61 c 0,0.783 -0.553,1.306 -1.383,1.306 z" style="fill:#ffffff;fill-rule:nonzero;stroke:#1d1d1b;stroke-width:2px;stroke-linecap:round;stroke-linejoin:round" id="path1003"></path><path d="m 311.431,111.404 h -4.146 c -0.826,0 -1.381,-0.523 -1.381,-1.306 v -2.61 c 0,-0.782 0.555,-1.308 1.381,-1.308 h 4.146 c 0.83,0 1.381,0.525 1.381,1.308 v 2.61 c 0,0.783 -0.551,1.306 -1.381,1.306 z" style="fill:#ffffff;fill-rule:nonzero;stroke:#1d1d1b;stroke-width:2px;stroke-linecap:round;stroke-linejoin:round" id="path1005"></path><path d="m 292.089,119.238 h -4.145 c -0.828,0 -1.381,-0.524 -1.381,-1.307 v -2.611 c 0,-0.783 0.553,-1.305 1.381,-1.305 h 4.145 c 0.828,0 1.383,0.521 1.383,1.305 v 2.611 c 0,0.783 -0.555,1.307 -1.383,1.307 z" style="fill:#ffffff;fill-rule:nonzero;stroke:#1d1d1b;stroke-width:2px;stroke-linecap:round;stroke-linejoin:round" id="path1007"></path><path d="m 301.759,119.238 h -4.143 c -0.83,0 -1.383,-0.524 -1.383,-1.307 v -2.611 c 0,-0.783 0.553,-1.305 1.383,-1.305 h 4.143 c 0.83,0 1.383,0.521 1.383,1.305 v 2.611 c 0,0.783 -0.553,1.307 -1.383,1.307 z" style="fill:#ffffff;fill-rule:nonzero;stroke:#1d1d1b;stroke-width:2px;stroke-linecap:round;stroke-linejoin:round" id="path1009"></path><path d="m 311.431,119.238 h -4.146 c -0.826,0 -1.381,-0.524 -1.381,-1.307 v -2.611 c 0,-0.783 0.555,-1.305 1.381,-1.305 h 4.146 c 0.83,0 1.381,0.521 1.381,1.305 v 2.611 c 0,0.783 -0.551,1.307 -1.381,1.307 z" style="fill:#ffffff;fill-rule:nonzero;stroke:#1d1d1b;stroke-width:2px;stroke-linecap:round;stroke-linejoin:round" id="path1011"></path><path d="m 292.089,127.07 h -4.145 c -0.828,0 -1.381,-0.521 -1.381,-1.307 v -2.609 c 0,-0.783 0.553,-1.307 1.381,-1.307 h 4.145 c 0.828,0 1.383,0.523 1.383,1.307 v 2.609 c 0,0.786 -0.555,1.307 -1.383,1.307 z" style="fill:#ffffff;fill-rule:nonzero;stroke:#1d1d1b;stroke-width:2px;stroke-linecap:round;stroke-linejoin:round" id="path1013"></path><path d="m 301.759,127.07 h -4.143 c -0.83,0 -1.383,-0.521 -1.383,-1.307 v -2.609 c 0,-0.783 0.553,-1.307 1.383,-1.307 h 4.143 c 0.83,0 1.383,0.523 1.383,1.307 v 2.609 c 0,0.786 -0.553,1.307 -1.383,1.307 z" style="fill:#ffffff;fill-rule:nonzero;stroke:#1d1d1b;stroke-width:2px;stroke-linecap:round;stroke-linejoin:round" id="path1015"></path><path d="m 311.431,127.07 h -4.146 c -0.826,0 -1.381,-0.521 -1.381,-1.307 v -2.609 c 0,-0.783 0.555,-1.307 1.381,-1.307 h 4.146 c 0.83,0 1.381,0.523 1.381,1.307 v 2.609 c 0,0.786 -0.551,1.307 -1.381,1.307 z" style="fill:#ffffff;fill-rule:nonzero;stroke:#1d1d1b;stroke-width:2px;stroke-linecap:round;stroke-linejoin:round" id="path1017"></path><rect x="22.836" y="169.52" width="32.816002" height="37.02" style="fill:#ffffff;stroke:#1d1d1b;stroke-width:2px;stroke-linecap:round;stroke-linejoin:round" id="rect1023"></rect><path d="M 55.872,206.777 H 22.616 V 169.279 H 55.872 Z M 23.056,206.299 H 55.432 V 169.758 H 23.056 Z" style="fill:#ffffff;fill-rule:nonzero;stroke:#1d1d1b;stroke-width:2px;stroke-linecap:round;stroke-linejoin:round" id="path1025"></path><rect x="22.836" y="169.52" width="32.816002" height="7.6560001" style="fill:#ffffff;stroke:#1d1d1b;stroke-width:2px;stroke-linecap:round;stroke-linejoin:round" id="rect1029"></rect><path d="M 55.872,177.416 H 22.616 v -8.137 h 33.256 z m -32.816,-0.477 h 32.376 v -7.182 H 23.056 Z" style="fill:#ffffff;fill-rule:nonzero;stroke:#1d1d1b;stroke-width:2px;stroke-linecap:round;stroke-linejoin:round" id="path1031"></path><rect x="27.778" y="186.98199" width="22.931999" height="6.375" style="fill:#ffffff;stroke:#1d1d1b;stroke-width:2px;stroke-linecap:round;stroke-linejoin:round" id="rect1037"></rect><path d="M 27.778,173.348 H 42.245" style="fill:none;fill-rule:nonzero;stroke:#1d1d1b;stroke-width:2px;stroke-linecap:round;stroke-linejoin:round" id="path1041"></path><path d="M 47.512,173.348 H 50.71" style="fill:none;fill-rule:nonzero;stroke:#1d1d1b;stroke-width:2px;stroke-linecap:round;stroke-linejoin:round" id="path1043"></path><path d="M 27.778,198.254 H 50.499" style="fill:none;fill-rule:nonzero;stroke:#1d1d1b;stroke-width:2px;stroke-linecap:round;stroke-linejoin:round" id="path1045"></path><rect x="281.50299" y="169.52" width="32.816002" height="37.02" style="fill:#ffffff;stroke:#1d1d1b;stroke-width:2px;stroke-linecap:round;stroke-linejoin:round" id="rect1049"></rect><path d="m 314.538,206.777 h -33.256 v -37.498 h 33.256 z m -32.816,-0.478 h 32.377 v -36.541 h -32.377 z" style="fill:#ffffff;fill-rule:nonzero;stroke:#1d1d1b;stroke-width:2px;stroke-linecap:round;stroke-linejoin:round" id="path1051"></path><rect x="281.50299" y="169.52" width="32.816002" height="7.6560001" style="fill:#ffffff;stroke:#1d1d1b;stroke-width:2px;stroke-linecap:round;stroke-linejoin:round" id="rect1055"></rect><path d="m 314.538,177.416 h -33.256 v -8.137 h 33.256 z m -32.816,-0.477 h 32.377 v -7.182 h -32.377 z" style="fill:#ffffff;fill-rule:nonzero;stroke:#1d1d1b;stroke-width:2px;stroke-linecap:round;stroke-linejoin:round" id="path1057"></path><path d="M286.444,173.348l14.467,0" style="fill:none;fill-rule:nonzero;stroke:rgb(29,29,27);stroke-width:2px;stroke-linecap:round;stroke-linejoin:round;" id="path1063"></path><path d="M286.444,196.143l14.467,0" style="fill:none;fill-rule:nonzero;stroke:rgb(29,29,27);stroke-width:2px;stroke-linecap:round;stroke-linejoin:round;" id="path1065"></path><path d="M286.444,200.658l22.914,-0" style="fill:none;fill-rule:nonzero;stroke:rgb(29,29,27);stroke-width:2px;stroke-linecap:round;stroke-linejoin:round;" id="path1067"></path><path d="M306.179,173.348l3.197,0" style="fill:none;fill-rule:nonzero;stroke:rgb(29,29,27);stroke-width:2px;stroke-linecap:round;stroke-linejoin:round;" id="path1069"></path><rect x="286.212" y="181.609" width="9.66" height="9.66" style="fill:white;stroke:rgb(29,29,27);stroke-width:2px;stroke-linecap:round;stroke-linejoin:round;" id="rect1071"></rect><rect x="300.007" y="181.609" width="9.66" height="9.66" style="fill:white;stroke:rgb(29,29,27);stroke-width:2px;stroke-linecap:round;stroke-linejoin:round;" id="rect1073"></rect><g id="bulbGroup" style="opacity:0.95999999"><path d="m 185.831,119.866 c 0,-10.188 -8.733,-18.26 -19.188,-17.068 -7.939,0.925 -14.29,7.277 -15.083,15.217 -0.663,6.088 1.851,11.512 6.087,14.953 1.851,1.586 3.042,3.838 3.042,6.352 v 0.396 h 15.879 v -0.133 c 0,-2.381 1.059,-4.764 2.912,-6.352 3.837,-3.174 6.351,-7.938 6.351,-13.365 z" style="fill:#ffffff;fill-rule:nonzero;stroke:#1d1d1b;stroke-width:2px" id="path931"></path><circle cx="168.629" cy="150.861" r="4.531" style="fill:white;stroke:rgb(29, 29, 27);stroke-width:2px" id="circle933"></circle><path d="M160.688,139.715l-0,6.615c-0,2.912 2.383,5.293 5.293,5.293l5.295,0c1.889,0 3.542,-1.012 4.479,-2.512l0.02,-0.002c0.339,-0.508 0.557,-1.076 0.678,-1.693c0.004,-0.016 0.007,-0.029 0.01,-0.045c0.062,-0.334 0.105,-0.676 0.105,-1.041l-0,-6.614l-15.88,0l-0,-0.001Z" style="fill:white;fill-rule:nonzero;stroke:rgb(29, 29, 27);stroke-width:2px" id="path935"></path><path d="M166.219,138.734l0,-15.548l-4.615,-5.435l13.987,0l-4.594,5.407l0,15.576" style="fill:white;fill-rule:nonzero;stroke:rgb(29, 29, 27);stroke-width:2px;stroke-linejoin:round" id="path1075"></path></g></g></g></svg>